<svg width="26" height="24" viewBox="0 0 26 24" fill="none" xmlns="http://www.w3.org/2000/svg">
<path d="M13.1063 0C10.6834 0 8.31483 0.703788 6.30022 2.02236C4.28561 3.34094 2.71541 5.21508 1.78818 7.4078C0.86096 9.60051 0.618356 12.0133 1.09105 14.3411C1.56375 16.6689 2.73051 18.807 4.44379 20.4853C6.15708 22.1635 8.33994 23.3064 10.7163 23.7694C13.0927 24.2324 15.5559 23.9948 17.7945 23.0865C20.033 22.1783 21.9463 20.6402 23.2924 18.6668C24.6385 16.6934 25.357 14.3734 25.357 12C25.357 10.4241 25.0401 8.8637 24.4245 7.4078C23.8088 5.95189 22.9064 4.62902 21.7689 3.51472C20.6313 2.40041 19.2808 1.5165 17.7945 0.913445C16.3081 0.310389 14.7151 0 13.1063 0ZM13.1063 2.4C15.6235 2.39902 18.0431 3.35392 19.8564 5.064C17.9846 6.13944 16.001 7.01639 13.9394 7.68C12.9134 5.94819 11.737 4.30613 10.4234 2.772C11.2956 2.526 12.1987 2.40078 13.1063 2.4ZM8.0713 3.78C9.35478 5.2182 10.5067 6.76416 11.5137 8.4C9.10905 8.98488 6.64104 9.28304 4.16334 9.288H3.72231C4.41717 6.98357 5.96901 5.01817 8.0713 3.78ZM5.75592 18.372C4.16181 16.6185 3.28874 14.3479 3.30579 12V11.652H4.13884C7.03903 11.6266 9.92286 11.2231 12.7143 10.452C13.1063 11.184 13.4738 11.94 13.8291 12.72C11.9198 13.3793 10.1417 14.3578 8.57358 15.612L8.20606 15.9C7.33273 16.6683 6.5141 17.4942 5.75592 18.372ZM13.1063 21.6C11.1537 21.6042 9.24515 21.0313 7.63028 19.956C8.22669 19.2859 8.86495 18.6527 9.54138 18.06L9.9334 17.736C11.3829 16.5419 13.0438 15.6186 14.8337 15.012C15.5703 16.9632 16.1439 18.9698 16.5488 21.012C15.446 21.4064 14.2803 21.6055 13.1063 21.6ZM18.7784 19.812C18.3776 17.9959 17.8537 16.2079 17.2103 14.46H17.6268C17.6751 14.4483 17.7256 14.4483 17.7738 14.46H18.6191C19.9083 14.4636 21.1878 14.6786 22.4046 15.096C21.7361 17.0044 20.4664 18.6557 18.7784 19.812ZM18.6191 12H17.8596C17.701 11.9804 17.5404 11.9804 17.3818 12C17.0488 12.02 16.7174 12.0601 16.3895 12.12H16.267C15.9117 11.316 15.5442 10.536 15.1399 9.72C17.3336 8.98207 19.4404 8.01658 21.4245 6.84C22.4088 8.38724 22.9229 10.177 22.9069 12V12.612C21.5185 12.1923 20.0721 11.9858 18.6191 12Z" fill="#F1F1F1"/>
</svg>
