<svg width="25" height="24" viewBox="0 0 25 24" fill="none" xmlns="http://www.w3.org/2000/svg">
<path d="M23.5357 0H2.17565C1.82557 0 1.48982 0.139071 1.24227 0.386619C0.994723 0.634167 0.855652 0.969914 0.855652 1.32V22.68C0.855652 23.0301 0.994723 23.3658 1.24227 23.6134C1.48982 23.8609 1.82557 24 2.17565 24H13.6717V14.7H10.5517V11.1H13.6717V8.4C13.607 7.76611 13.6819 7.12575 13.8909 6.52385C14.1 5.92194 14.4382 5.37305 14.8818 4.91569C15.3255 4.45833 15.8638 4.10357 16.459 3.87629C17.0543 3.649 17.6921 3.5547 18.3277 3.6C19.2616 3.59425 20.1952 3.64233 21.1237 3.744V6.984H19.2157C17.7037 6.984 17.4157 7.704 17.4157 8.748V11.064H21.0157L20.5477 14.664H17.4157V24H23.5357C23.709 24 23.8806 23.9659 24.0408 23.8995C24.2009 23.8332 24.3465 23.736 24.469 23.6134C24.5916 23.4908 24.6888 23.3453 24.7552 23.1851C24.8215 23.025 24.8557 22.8533 24.8557 22.68V1.32C24.8557 1.14666 24.8215 0.975008 24.7552 0.814858C24.6888 0.654708 24.5916 0.509193 24.469 0.386619C24.3465 0.264046 24.2009 0.166815 24.0408 0.100479C23.8806 0.0341429 23.709 0 23.5357 0Z" fill="#F1F1F1"/>
</svg>
