<svg width="48" height="48" viewBox="0 0 48 48" fill="none" xmlns="http://www.w3.org/2000/svg">
<g clipPath="url(#clip0_287_545)">
<path d="M36.75 0H11.25C5.0368 0 0 5.0368 0 11.25V36.75C0 42.9632 5.0368 48 11.25 48H36.75C42.9632 48 48 42.9632 48 36.75V11.25C48 5.0368 42.9632 0 36.75 0Z" fill="#242938"/>
<mask id="mask0_287_545" style="mask-type:luminance" maskUnits="userSpaceOnUse" x="7" y="7" width="34" height="34">
<path d="M7.125 7.125H40.875V40.875H7.125V7.125Z" fill="white"/>
</mask>
<g mask="url(#mask0_287_545)">
<path fill-rule="evenodd" clip-rule="evenodd" d="M38.2127 33.4143C36.3771 33.3633 34.953 33.5513 33.7596 34.0535C33.4159 34.1915 32.8644 34.1915 32.8191 34.624C33.0028 34.8055 33.0249 35.1025 33.186 35.3542C33.4611 35.8107 33.9437 36.4257 34.3794 36.7448L35.8483 37.7945C36.7434 38.3414 37.7533 38.6611 38.6254 39.2086C39.1305 39.5281 39.6353 39.9387 40.1404 40.2813C40.3976 40.4637 40.5534 40.7609 40.875 40.8743V40.8053C40.7145 40.6008 40.6682 40.3043 40.5083 40.0752L39.8188 39.4141C39.1538 38.5246 38.3269 37.7483 37.4318 37.1103C36.6971 36.6083 35.091 35.9242 34.7925 35.0806L34.7473 35.0294C35.2515 34.9784 35.8483 34.8008 36.3308 34.664C37.1117 34.4594 37.8227 34.5044 38.6254 34.2993L39.7279 33.9798V33.7752C39.3146 33.3648 39.0163 32.8171 38.5806 32.4297C37.4102 31.426 36.1239 30.4448 34.7925 29.6238C34.0811 29.1678 33.1628 28.8706 32.4054 28.4836C32.1293 28.3465 31.6708 28.2781 31.5103 28.0501C31.0961 27.5491 30.8672 26.8868 30.5689 26.2934L28.6869 22.3244C28.2739 21.4347 28.0208 20.545 27.5166 19.724C25.152 15.8459 22.5808 13.4967 18.6328 11.1923C17.784 10.7133 16.7741 10.5072 15.7003 10.2567L13.9791 10.1648C13.6112 10.0053 13.2443 9.57159 12.9229 9.36609C11.6145 8.54484 8.24026 6.76584 7.27539 9.11053C6.6557 10.5931 8.19395 12.0528 8.71614 12.806C9.10707 13.3306 9.61126 13.9235 9.88745 14.5167C10.0418 14.9043 10.0933 15.3153 10.2544 15.7259C10.6211 16.7294 10.9658 17.8477 11.4478 18.7833C11.7051 19.2623 11.9753 19.7648 12.2966 20.198C12.4804 20.4535 12.8019 20.563 12.8704 20.9735C12.5488 21.43 12.5267 22.1137 12.3429 22.6848C11.5163 25.2625 11.8378 28.456 13.0082 30.3539C13.3761 30.9239 14.2429 32.179 15.4191 31.6996C16.452 31.289 16.2216 29.9888 16.5199 28.8481C16.5893 28.5747 16.5431 28.3921 16.6804 28.2091V28.2603L17.6218 30.1535C18.3334 31.2712 19.5733 32.4348 20.6057 33.2108C21.1562 33.6215 21.5925 34.3291 22.2808 34.5796V34.5106H22.2356C22.0976 34.306 21.8908 34.214 21.7073 34.0544C21.2942 33.644 20.8352 33.1418 20.5136 32.6858C19.5501 31.4086 18.7013 29.9939 17.9434 28.5342C17.5757 27.8272 17.2541 27.0515 16.9568 26.3444C16.8178 26.0705 16.8178 25.6593 16.5889 25.5233C16.2441 26.0243 15.7401 26.459 15.4864 27.0745C15.0501 28.0552 15.0049 29.2643 14.8444 30.5191C14.7518 30.542 14.7928 30.5191 14.7518 30.5701C14.0181 30.3882 13.7649 29.6345 13.4899 28.9964C12.8014 27.3768 12.6861 24.7763 13.2829 22.9057C13.4434 22.4266 14.1328 20.921 13.8576 20.4648C13.7188 20.0313 13.2608 19.7808 13.0076 19.4382C12.7093 19.0047 12.3889 18.4576 12.1821 17.9785C11.6316 16.7003 11.3563 15.2866 10.7589 14.0092C10.4828 13.4159 10.0013 12.7998 9.6107 12.2528C9.17439 11.6367 8.69345 11.203 8.34882 10.4735C8.23407 10.2179 8.07357 9.81197 8.25714 9.53784C8.30251 9.3554 8.39495 9.28228 8.57776 9.2414C8.87589 8.98565 9.72601 9.30984 10.0243 9.44578C10.8731 9.78834 11.5847 10.1075 12.2963 10.586C12.6178 10.814 12.9624 11.2477 13.3755 11.3622H13.8581C14.5928 11.5216 15.4185 11.4132 16.1063 11.6178C17.3231 12.0063 18.4245 12.5759 19.4123 13.1924C22.4188 15.0858 24.8985 17.7775 26.5734 20.9945C26.8487 21.5191 26.9634 21.9982 27.2166 22.5457C27.6992 23.6639 28.296 24.8041 28.7769 25.8997C29.2596 26.9718 29.7184 28.0675 30.4069 28.957C30.7515 29.4361 32.1281 29.6866 32.7476 29.9377C33.207 30.1422 33.918 30.3263 34.3322 30.5768C35.112 31.0559 35.8926 31.6034 36.6266 32.128C36.9934 32.401 38.1418 32.9716 38.2101 33.4267L38.2127 33.4143ZM14.8046 13.5912C14.4876 13.5884 14.1715 13.6267 13.8643 13.7052V13.7564H13.9095C14.0933 14.1215 14.4148 14.3725 14.6441 14.692L15.1725 15.787L15.2179 15.736C15.5393 15.508 15.7003 15.143 15.7003 14.596C15.5625 14.4365 15.5398 14.2763 15.4251 14.1168C15.2873 13.8888 14.9889 13.7742 14.8046 13.5923V13.5912Z" fill="white"/>
</g>
</g>
<defs>
<clipPath id="clip0_287_545">
<rect width="48" height="48" fill="white"/>
</clipPath>
</defs>
</svg>
