<svg width="48" height="48" viewBox="0 0 48 48" fill="none" xmlns="http://www.w3.org/2000/svg">
<g clipPath="url(#clip0_287_532)">
<path d="M36.75 0H11.25C5.0368 0 0 5.0368 0 11.25V36.75C0 42.9632 5.0368 48 11.25 48H36.75C42.9632 48 48 42.9632 48 36.75V11.25C48 5.0368 42.9632 0 36.75 0Z" fill="#242938"/>
<mask id="mask0_287_532" style="mask-type:luminance" maskUnits="userSpaceOnUse" x="11" y="5" width="26" height="38">
<path d="M11.4375 5.25H36.4425V42.75H11.4375V5.25Z" fill="white"/>
</mask>
<g mask="url(#mask0_287_532)">
<path d="M17.6901 42.7501C21.1401 42.7501 23.94 39.9501 23.94 36.5001V30.25H17.6901C14.2401 30.25 11.4399 33.0501 11.4399 36.5001C11.4399 39.9501 14.2401 42.7501 17.6901 42.7501Z" fill="#0ACF83"/>
<path d="M11.4399 23.9999C11.4399 20.5499 14.2401 17.75 17.6901 17.75H23.94V30.2499H17.6901C14.2401 30.2499 11.4399 27.4499 11.4399 23.9999Z" fill="#A259FF"/>
<path d="M11.4399 11.4999C11.4399 8.04994 14.2401 5.25 17.6901 5.25H23.94V17.7501H17.6901C14.2401 17.7501 11.4399 14.9499 11.4399 11.4999Z" fill="#F24E1E"/>
<path d="M23.94 5.25H30.1899C33.6399 5.25 36.4401 8.04994 36.4401 11.4999C36.4401 14.9499 33.6399 17.7501 30.1899 17.7501H23.94V5.25Z" fill="#FF7262"/>
<path d="M36.4401 23.9999C36.4401 27.4499 33.6399 30.2499 30.1899 30.2499C26.7399 30.2499 23.94 27.4499 23.94 23.9999C23.94 20.5499 26.7399 17.75 30.1899 17.75C33.6399 17.75 36.4401 20.5499 36.4401 23.9999Z" fill="#1ABCFE"/>
</g>
</g>
<defs>
<clipPath id="clip0_287_532">
<rect width="48" height="48" fill="white"/>
</clipPath>
</defs>
</svg>
