<svg width="48" height="48" viewBox="0 0 48 48" fill="none" xmlns="http://www.w3.org/2000/svg">
<g clipPath="url(#clip0_287_553)">
<path d="M36.75 0H11.25C5.0368 0 0 5.0368 0 11.25V36.75C0 42.9632 5.0368 48 11.25 48H36.75C42.9632 48 48 42.9632 48 36.75V11.25C48 5.0368 42.9632 0 36.75 0Z" fill="#242938"/>
<path d="M22.4771 5.83427C23.3994 5.30646 24.6006 5.30402 25.5219 5.83427C30.1573 8.45365 34.7942 11.0687 39.4288 13.6896C40.3007 14.1807 40.8836 15.1508 40.8748 16.1552V31.9136C40.8814 32.9597 40.2407 33.9531 39.321 34.4329C34.7008 37.0378 30.0829 39.6458 25.4634 42.2507C24.5224 42.7888 23.2971 42.7474 22.3851 42.165C21 41.3622 19.6125 40.563 18.2272 39.7609C17.9441 39.5922 17.625 39.4579 17.4251 39.1834C17.6019 38.9453 17.9179 38.9156 18.1746 38.8116C18.7526 38.6277 19.2838 38.3325 19.8148 38.0462C19.9492 37.9543 20.1131 37.9896 20.2419 38.0717C21.4264 38.7508 22.6005 39.4498 23.7889 40.1224C24.0424 40.2688 24.2991 40.0744 24.5158 39.9537C29.0496 37.3911 33.5889 34.8385 38.1221 32.2752C38.2901 32.1943 38.3829 32.016 38.3692 31.8321C38.3724 26.6336 38.37 21.4345 38.3709 16.2358C38.3901 16.0273 38.2693 15.8353 38.0805 15.7498C33.4764 13.1569 28.8744 10.5602 24.2711 7.96671C24.1914 7.91184 24.0969 7.88239 24.0001 7.88222C23.9034 7.88205 23.8088 7.91118 23.7289 7.96577C19.1254 10.5602 14.5245 13.1595 9.92099 15.7521C9.73293 15.8378 9.60674 16.0266 9.62905 16.2358C9.62999 21.4345 9.62905 26.6336 9.62905 31.8328C9.62106 31.9226 9.64079 32.0127 9.68558 32.091C9.73037 32.1692 9.79807 32.2319 9.87955 32.2705C11.1079 32.967 12.3379 33.6587 13.5671 34.353C14.2597 34.7256 15.1099 34.9472 15.873 34.6616C16.5461 34.4202 17.0181 33.733 17.0053 33.0182C17.0117 27.8501 17.0021 22.6813 17.01 17.5138C16.9931 17.2845 17.2108 17.095 17.4339 17.1167C18.0242 17.1126 18.6152 17.1086 19.2054 17.1182C19.4518 17.1126 19.6213 17.3597 19.5909 17.5907C19.5885 22.7916 19.5973 27.9925 19.587 33.1931C19.5885 34.5793 19.0191 36.0876 17.7369 36.7658C16.1576 37.5838 14.2054 37.4104 12.645 36.6259C11.2942 35.9517 10.005 35.1559 8.67824 34.4336C7.75611 33.9565 7.11861 32.9592 7.12518 31.9138V16.1552C7.11543 15.13 7.7218 14.1422 8.62049 13.6583C13.2399 11.0515 17.8586 8.4424 22.4771 5.83427Z" fill="#81CD39"/>
<path d="M26.5073 16.7504C28.5219 16.6206 30.6788 16.6735 32.4917 17.6661C33.8955 18.4266 34.6736 20.023 34.6984 21.5824C34.6592 21.7926 34.4393 21.9087 34.2384 21.8942C33.654 21.8935 33.0692 21.9023 32.4848 21.8903C32.2367 21.8999 32.0927 21.6713 32.0616 21.4521C31.8936 20.7059 31.4865 19.9669 30.7843 19.6069C29.7062 19.0673 28.4563 19.0945 27.2807 19.1058C26.4225 19.1511 25.4996 19.2256 24.7725 19.7301C24.2143 20.1124 24.0448 20.8842 24.2439 21.5057C24.4318 21.952 24.9469 22.096 25.3686 22.2288C27.7965 22.8638 30.3694 22.8004 32.751 23.6361C33.7371 23.9768 34.7016 24.6392 35.0391 25.6716C35.4806 27.0554 35.2871 28.7091 34.3026 29.8199C33.5042 30.7339 32.3415 31.2316 31.1818 31.5018C29.6391 31.8458 28.038 31.8546 26.4713 31.7018C24.9981 31.5338 23.4649 31.1468 22.3277 30.1431C21.3551 29.2986 20.8802 27.9827 20.9273 26.713C20.9385 26.4985 21.1521 26.3489 21.3576 26.3665C21.9461 26.3618 22.5349 26.3601 23.1234 26.3674C23.3588 26.3506 23.5329 26.5538 23.5451 26.7754C23.6535 27.4863 23.9207 28.2325 24.5408 28.6538C25.737 29.4258 27.2383 29.3729 28.6082 29.3944C29.7431 29.3442 31.0172 29.329 31.9433 28.5788C32.4319 28.1509 32.5766 27.4351 32.4446 26.8193C32.3016 26.2994 31.7576 26.0571 31.2906 25.8987C28.8938 25.1406 26.292 25.4157 23.9184 24.5583C22.9547 24.2178 22.0228 23.5739 21.6527 22.5839C21.1361 21.1827 21.3728 19.4494 22.4604 18.3764C23.5209 17.3086 25.0517 16.8974 26.5073 16.7504Z" fill="#81CD39"/>
</g>
<defs>
<clipPath id="clip0_287_553">
<rect width="48" height="48" fill="white"/>
</clipPath>
</defs>
</svg>
