<svg width="48" height="48" viewBox="0 0 48 48" fill="none" xmlns="http://www.w3.org/2000/svg">
<g clipPath="url(#clip0_287_524)">
<path d="M36.75 0H11.25C5.0368 0 0 5.0368 0 11.25V36.75C0 42.9632 5.0368 48 11.25 48H36.75C42.9632 48 48 42.9632 48 36.75V11.25C48 5.0368 42.9632 0 36.75 0Z" fill="#001E36"/>
<path d="M10.8 33.3826V12.8026C10.8 12.6625 10.86 12.5826 11.0001 12.5826C11.34 12.5826 11.6601 12.5826 12.12 12.5626C12.6 12.5425 13.1001 12.5425 13.6401 12.5226C14.1801 12.5026 14.76 12.5026 15.3801 12.4825C15.9999 12.4626 16.5999 12.4626 17.1999 12.4626C18.84 12.4626 20.1999 12.6625 21.3201 13.0825C22.324 13.4235 23.2395 13.9837 24 14.7226C24.6444 15.3692 25.1424 16.1467 25.4601 17.0026C25.7601 17.8426 25.92 18.7026 25.92 19.6026C25.92 21.3226 25.5201 22.7425 24.72 23.8626C23.9199 24.9826 22.8 25.8226 21.5001 26.3026C20.1399 26.8026 18.6399 26.9826 17.0001 26.9826C16.5201 26.9826 16.2 26.9826 15.9999 26.9626C15.8001 26.9425 15.5199 26.9425 15.1401 26.9425V33.3625C15.1599 33.5026 15.06 33.6226 14.9199 33.6426H11.04C10.8801 33.6426 10.8 33.5626 10.8 33.3826ZM15.1599 16.4425V23.1625C15.4401 23.1826 15.6999 23.2026 15.9399 23.2026H17.0001C17.7801 23.2026 18.5601 23.0826 19.2999 22.8426C19.9401 22.6626 20.4999 22.2826 20.94 21.7825C21.36 21.2826 21.5601 20.6026 21.5601 19.7226C21.5788 19.0976 21.4192 18.4802 21.0999 17.9425C20.76 17.4226 20.28 17.0226 19.7001 16.8025C18.96 16.5025 18.1599 16.3825 17.34 16.4026C16.8201 16.4026 16.3599 16.4026 15.9801 16.4226C15.5799 16.4026 15.3 16.4226 15.1599 16.4425ZM38.4 21.9426C37.8 21.6226 37.16 21.4026 36.48 21.2626C35.7399 21.1026 35.0001 21.0025 34.2399 21.0025C33.84 20.9826 33.42 21.0426 33.0399 21.1426C32.7801 21.2026 32.5599 21.3426 32.42 21.5425C32.3199 21.7026 32.2599 21.9025 32.2599 22.0825C32.2599 22.2625 32.34 22.4425 32.46 22.6026C32.64 22.8226 32.88 23.0026 33.14 23.1426C33.6037 23.3828 34.0775 23.603 34.56 23.8026C35.64 24.1626 36.6801 24.6625 37.6401 25.2625C38.3001 25.6825 38.84 26.2426 39.2199 26.9226C39.54 27.5626 39.6999 28.2625 39.6801 28.9825C39.6999 29.9226 39.42 30.8626 38.9001 31.6426C38.3422 32.441 37.5638 33.0595 36.66 33.4225C35.6799 33.8425 34.4799 34.0626 33.0399 34.0626C32.1201 34.0626 31.2201 33.9826 30.3201 33.8026C29.6147 33.6807 28.9286 33.4655 28.2801 33.1626C28.14 33.0826 28.0401 32.9425 28.0599 32.7826V29.3026C28.0599 29.2426 28.08 29.1625 28.14 29.1226C28.2 29.0826 28.26 29.1025 28.32 29.1426C29.1 29.6026 29.9199 29.9226 30.8001 30.1225C31.56 30.3226 32.3601 30.4225 33.1599 30.4225C33.92 30.4225 34.46 30.3226 34.82 30.1426C35.1399 30.0025 35.3601 29.6626 35.3601 29.3026C35.3601 29.0226 35.1999 28.7626 34.8801 28.5025C34.56 28.2426 33.9 27.9426 32.9199 27.5626C31.9146 27.2083 30.9599 26.7242 30.0801 26.1226C29.4533 25.6759 28.9341 25.0951 28.56 24.4225C28.2399 23.7826 28.08 23.0826 28.1001 22.3825C28.1001 21.5226 28.34 20.7025 28.7799 19.9626C29.28 19.1626 30.0201 18.5226 30.8799 18.1225C31.82 17.6425 33 17.4226 34.4199 17.4226C35.24 17.4226 36.0801 17.4826 36.9 17.6026C37.5 17.6826 38.0799 17.8426 38.6199 18.0625C38.7 18.0826 38.7801 18.1626 38.82 18.2425C38.8401 18.3226 38.8599 18.4026 38.8599 18.4825V21.7426C38.8599 21.8226 38.82 21.9025 38.76 21.9426C38.58 21.9826 38.4801 21.9826 38.4 21.9426Z" fill="#31A8FF"/>
</g>
<defs>
<clipPath id="clip0_287_524">
<rect width="48" height="48" fill="white"/>
</clipPath>
</defs>
</svg>
