<svg width="48" height="48" viewBox="0 0 48 48" fill="none" xmlns="http://www.w3.org/2000/svg">
<g clipPath="url(#clip0_287_497)">
<path d="M36.75 0H11.25C5.0368 0 0 5.0368 0 11.25V36.75C0 42.9632 5.0368 48 11.25 48H36.75C42.9632 48 48 42.9632 48 36.75V11.25C48 5.0368 42.9632 0 36.75 0Z" fill="#0073AA"/>
<path d="M7.91514 23.9988C7.91514 30.3654 11.6151 35.8674 16.9802 38.4747L9.3077 17.453C8.38796 19.5126 7.91343 21.7432 7.91514 23.9988ZM34.8578 23.1871C34.8578 21.1994 34.1438 19.8228 33.5314 18.7512C32.7159 17.4264 31.9517 16.3044 31.9517 14.9795C31.9517 13.5009 33.0731 12.1246 34.6526 12.1246C34.7241 12.1246 34.7916 12.1334 34.8611 12.1374C31.9995 9.51573 28.1871 7.91504 23.9994 7.91504C18.3804 7.91504 13.4366 10.798 10.5608 15.1649C10.938 15.1762 11.2937 15.1842 11.5958 15.1842C13.2782 15.1842 15.8824 14.9799 15.8824 14.9799C16.7494 14.9289 16.8518 16.2024 15.9855 16.3049C15.9855 16.3049 15.1142 16.4075 14.1446 16.4583L20.0018 33.8804L23.5217 23.3236L21.0158 16.4577C20.1497 16.4069 19.3292 16.3044 19.3292 16.3044C18.4624 16.2535 18.564 14.9283 19.4308 14.9795C19.4308 14.9795 22.0869 15.1835 23.6674 15.1835C25.3496 15.1835 27.954 14.9795 27.954 14.9795C28.8218 14.9283 28.9236 16.2018 28.0571 16.3044C28.0571 16.3044 27.1839 16.4069 26.2163 16.4577L32.0289 33.7479L33.6332 28.3869C34.3286 26.162 34.8578 24.5641 34.8578 23.1871Z" fill="white"/>
<path d="M24.2818 25.406L19.4559 39.4291C20.9314 39.8637 22.4615 40.0844 23.9996 40.0844C25.8188 40.0851 27.6248 39.7767 29.3407 39.1726C29.2961 39.1023 29.2578 39.0281 29.2264 38.951L24.2818 25.406ZM38.1129 16.2822C38.1861 16.8304 38.2223 17.3829 38.2213 17.936C38.2213 19.5682 37.9164 21.403 36.9982 23.6973L32.0852 37.9021C36.867 35.1136 40.0834 29.9332 40.0834 23.9994C40.0836 21.2028 39.3694 18.5731 38.1129 16.2822Z" fill="white"/>
<path d="M23.9996 5.25C13.6613 5.25 5.25 13.6607 5.25 23.9989C5.25 34.3384 13.6613 42.7487 23.9996 42.7487C34.3374 42.7487 42.75 34.3384 42.75 23.9989C42.7496 13.6607 34.3374 5.25 23.9996 5.25ZM23.9996 41.8894C14.1353 41.8894 6.10969 33.8636 6.10969 23.9989C6.10969 14.1347 14.1351 6.10969 23.9996 6.10969C33.8634 6.10969 41.8884 14.1347 41.8884 23.9989C41.8884 33.8636 33.8634 41.8894 23.9996 41.8894Z" fill="white"/>
</g>
<defs>
<clipPath id="clip0_287_497">
<rect width="48" height="48" fill="white"/>
</clipPath>
</defs>
</svg>
