<svg width="48" height="48" viewBox="0 0 48 48" fill="none" xmlns="http://www.w3.org/2000/svg">
<g clipPath="url(#clip0_287_528)">
<path d="M36.75 0H11.25C5.0368 0 0 5.0368 0 11.25V36.75C0 42.9632 5.0368 48 11.25 48H36.75C42.9632 48 48 42.9632 48 36.75V11.25C48 5.0368 42.9632 0 36.75 0Z" fill="#470137"/>
<path d="M25.1698 15.0402L19.5448 24.3215L25.5448 34.1652C25.5823 34.2402 25.6011 34.3152 25.5823 34.3902C25.5636 34.4652 25.4886 34.409 25.3761 34.4277H21.0823C20.7823 34.4277 20.5761 34.409 20.4448 34.2215C20.0511 33.434 19.6386 32.6652 19.2448 31.8777C18.8511 31.109 18.4198 30.3215 17.9698 29.5152C17.5198 28.709 17.0698 27.9027 16.6198 27.0777H16.5823C16.1886 27.884 15.7573 28.6902 15.3261 29.4965C14.8948 30.3027 14.4636 31.109 14.0511 31.8965C13.6198 32.684 13.1886 33.4902 12.7573 34.259C12.6823 34.4465 12.5323 34.4652 12.3261 34.4652H8.20107C8.12607 34.4652 8.06983 34.5027 8.06983 34.409C8.05108 34.334 8.06982 34.259 8.10732 34.2027L13.9386 24.6402L8.25733 15.0215C8.20108 14.9465 8.18233 14.8715 8.21983 14.834C8.25733 14.7777 8.33233 14.759 8.40733 14.759H12.6636C12.7573 14.759 12.8511 14.7777 12.9261 14.7965C13.0011 14.834 13.0573 14.8902 13.1136 14.9652C13.4698 15.7715 13.8823 16.5777 14.3136 17.384C14.7636 18.1902 15.1948 18.9777 15.6636 19.7652C16.1136 20.5527 16.5261 21.3402 16.9198 22.1465H16.9573C17.3511 21.3215 17.7636 20.5152 18.1761 19.7277C18.5886 18.9402 19.0198 18.1527 19.4511 17.3652C19.8823 16.5777 20.2948 15.7715 20.7073 15.0027C20.7261 14.9277 20.7636 14.8527 20.8198 14.8152C20.8948 14.7777 20.9698 14.759 21.0636 14.7777H25.0198C25.1136 14.759 25.2073 14.8152 25.2261 14.909C25.2448 14.9277 25.2073 15.0027 25.1698 15.0402ZM33.8323 34.8217C32.4448 34.8404 31.0573 34.5592 29.8011 33.9779C28.6198 33.4342 27.6448 32.5342 26.9698 31.4279C26.2761 30.2842 25.9386 28.8592 25.9386 27.1529C25.9198 25.7654 26.2761 24.3967 26.9698 23.1967C27.6823 21.9779 28.7136 20.9654 29.9511 20.2904C31.2636 19.5592 32.8386 19.2029 34.6948 19.2029C34.7886 19.2029 34.9198 19.2029 35.0886 19.2217C35.2573 19.2404 35.4448 19.2404 35.6698 19.2592V13.3342C35.6698 13.2029 35.7261 13.1279 35.8573 13.1279H39.6636C39.7573 13.1092 39.8323 13.1842 39.8511 13.2592V31.1467C39.8511 31.4842 39.8698 31.8592 39.8886 32.2717C39.9261 32.6654 39.9448 33.0404 39.9636 33.3592C39.9636 33.4904 39.9073 33.6029 39.7761 33.6592C38.8011 34.0717 37.7698 34.3717 36.7198 34.5592C35.7636 34.7279 34.8073 34.8217 33.8323 34.8217ZM35.6698 31.0717V22.8217C35.5011 22.7842 35.3323 22.7467 35.1636 22.7279C34.9573 22.7092 34.7511 22.6904 34.5448 22.6904C33.8136 22.6904 33.0823 22.8404 32.4261 23.1779C31.7886 23.4967 31.2448 23.9654 30.8323 24.5654C30.4198 25.1654 30.2136 25.9717 30.2136 26.9467C30.1948 27.6029 30.3073 28.2592 30.5323 28.8779C30.7198 29.3842 31.0011 29.8342 31.3761 30.2092C31.7323 30.5467 32.1636 30.8092 32.6511 30.9592C33.1573 31.1279 33.6823 31.2029 34.2073 31.2029C34.4886 31.2029 34.7511 31.1842 34.9948 31.1654C35.2386 31.1842 35.4448 31.1467 35.6698 31.0717Z" fill="#FF61F6"/>
</g>
<defs>
<clipPath id="clip0_287_528">
<rect width="48" height="48" fill="white"/>
</clipPath>
</defs>
</svg>
