<svg width="48" height="48" viewBox="0 0 48 48" fill="none" xmlns="http://www.w3.org/2000/svg">
<g clipPath="url(#clip0_287_520)">
<path d="M36.75 0H11.25C5.0368 0 0 5.0368 0 11.25V36.75C0 42.9632 5.0368 48 11.25 48H36.75C42.9632 48 48 42.9632 48 36.75V11.25C48 5.0368 42.9632 0 36.75 0Z" fill="#330000"/>
<path d="M23.1999 28.5623H15.7599L14.2399 33.2624C14.1999 33.4424 14.04 33.5624 13.86 33.5423H10.0999C9.87994 33.5423 9.81994 33.4223 9.87994 33.1823L16.32 14.6423C16.38 14.4424 16.44 14.2223 16.5199 13.9823C16.5999 13.5623 16.6399 13.1224 16.6399 12.6824C16.62 12.5824 16.6999 12.4823 16.8 12.4624H21.9799C22.14 12.4624 22.2199 12.5224 22.2399 12.6224L29.5399 33.2224C29.5999 33.4424 29.5399 33.5423 29.34 33.5423H25.1599C25.02 33.5624 24.8799 33.4624 24.84 33.3224L23.1999 28.5623ZM16.92 24.5024H21.9999C21.8799 24.0824 21.72 23.5823 21.54 23.0624C21.36 22.5224 21.18 21.9424 21 21.3424C20.7999 20.7224 20.6199 20.1224 20.4199 19.5023C20.22 18.8824 20.04 18.3023 19.8799 17.7224C19.7199 17.1625 19.5799 16.6424 19.44 16.1624H19.3999C19.2199 17.0224 18.9999 17.8825 18.72 18.7424C18.42 19.7024 18.12 20.7023 17.7999 21.7024C17.5416 22.6464 17.2481 23.5804 16.92 24.5024ZM33.9999 15.9623C33.3399 15.9824 32.7 15.7223 32.22 15.2624C31.7601 14.7623 31.5201 14.1023 31.5399 13.4224C31.5201 12.7424 31.7799 12.1024 32.2599 11.6423C32.7399 11.1824 33.3801 10.9424 34.0401 10.9424C34.8201 10.9424 35.4201 11.1824 35.8599 11.6423C36.3032 12.1272 36.5399 12.7658 36.5199 13.4224C36.54 14.1023 36.3 14.7623 35.82 15.2624C35.3601 15.7424 34.68 16.0024 33.9999 15.9623ZM31.7601 33.3224V17.9224C31.7601 17.7224 31.8399 17.6423 32.0199 17.6423H35.9799C36.1599 17.6423 36.24 17.7424 36.24 17.9224V33.3224C36.24 33.5423 36.1599 33.6424 35.9799 33.6424H32.0601C31.86 33.6424 31.7601 33.5224 31.7601 33.3224Z" fill="#FF9A00"/>
</g>
<defs>
<clipPath id="clip0_287_520">
<rect width="48" height="48" fill="white"/>
</clipPath>
</defs>
</svg>
