<svg width="48" height="48" viewBox="0 0 48 48" fill="none" xmlns="http://www.w3.org/2000/svg">
<g clipPath="url(#clip0_287_485)">
<path d="M36.75 0H11.25C5.0368 0 0 5.0368 0 11.25V36.75C0 42.9632 5.0368 48 11.25 48H36.75C42.9632 48 48 42.9632 48 36.75V11.25C48 5.0368 42.9632 0 36.75 0Z" fill="#CD6799"/>
<mask id="mask0_287_485" style="mask-type:luminance" maskUnits="userSpaceOnUse" x="5" y="9" width="38" height="30">
<path d="M5.25 9.9375H42.75V38.0454H5.25V9.9375Z" fill="white"/>
</mask>
<g mask="url(#mask0_287_485)">
<path d="M37.5201 26.0929C36.2124 26.0997 35.0762 26.4147 34.1246 26.8801C33.7755 26.1888 33.4264 25.5726 33.3647 25.1208C33.2962 24.5937 33.2141 24.2719 33.2962 23.6421C33.3784 23.0123 33.7481 22.1157 33.7412 22.0473C33.7344 21.9786 33.6591 21.6571 32.9061 21.6501C32.1531 21.6434 31.5028 21.7939 31.4274 21.9925C31.3521 22.1909 31.2084 22.6428 31.1126 23.1083C30.9825 23.7929 29.6064 26.2368 28.8193 27.5168C28.566 27.0171 28.347 26.579 28.299 26.2298C28.2306 25.7028 28.1484 25.381 28.2306 24.7512C28.3127 24.1214 28.6824 23.2246 28.6755 23.1561C28.6687 23.0877 28.5934 22.7659 27.8404 22.7592C27.0874 22.7523 26.4369 22.9028 26.3617 23.1014C26.2864 23.2999 26.2042 23.7655 26.0467 24.2172C25.8894 24.6691 24.0617 28.7491 23.5824 29.8032C23.3888 30.2298 23.1857 30.652 22.9732 31.0696C22.9732 31.0696 22.9663 31.0902 22.9459 31.1243C22.879 31.2553 22.8105 31.3853 22.7404 31.5145V31.5215C22.6378 31.7063 22.5281 31.8773 22.4734 31.8773C22.4323 31.8773 22.3571 31.3846 22.4871 30.7137C22.761 29.2966 23.4112 27.0923 23.4045 27.0171C23.4045 26.9761 23.5277 26.5926 22.98 26.3941C22.446 26.1955 22.2544 26.5242 22.2064 26.5242C22.1586 26.5242 22.1242 26.6406 22.1242 26.6406C22.1242 26.6406 22.7199 24.1624 20.988 24.1624C19.9063 24.1624 18.414 25.3467 17.6749 26.4147C16.8344 26.872 15.9945 27.3307 15.1554 27.7906C14.7517 28.0165 14.3342 28.2424 13.9438 28.4547C13.9164 28.4273 13.8891 28.393 13.8617 28.3656C11.7669 26.1271 7.89243 24.5459 8.05668 21.5406C8.11837 20.4453 8.49487 17.5701 15.4978 14.0789C21.2617 11.2381 25.8484 12.0252 26.6424 13.7708C27.7787 16.2627 24.1849 20.8902 18.2293 21.5611C15.9564 21.8144 14.7654 20.9382 14.4643 20.6097C14.1493 20.2673 14.1013 20.2469 13.9849 20.3153C13.7932 20.4179 13.9164 20.7259 13.9849 20.9039C14.163 21.3694 14.8954 22.1909 16.1344 22.5948C17.2297 22.9508 19.8926 23.1494 23.1169 21.9035C26.7246 20.5069 29.5449 16.6253 28.7166 13.3739C27.8884 10.0743 22.4119 8.98582 17.2297 10.8273C14.1491 11.9226 10.8086 13.6476 8.4058 15.893C5.55112 18.563 5.09943 20.8835 5.2843 21.8555C5.94824 25.3056 10.7059 27.5509 12.609 29.2145C12.5132 29.2692 12.4241 29.3172 12.3489 29.3583C11.3974 29.8306 7.76924 31.7268 6.86549 33.7326C5.83874 36.0053 7.02993 37.6345 7.81705 37.8535C10.2609 38.5313 12.7732 37.3128 14.1219 35.3001C15.4704 33.2875 15.3062 30.6726 14.6831 29.4747C14.6764 29.4595 14.6672 29.4456 14.6557 29.4336C14.9023 29.2898 15.1554 29.1393 15.402 28.9954C15.855 28.7277 16.3137 28.4698 16.7779 28.2218C16.5452 28.8586 16.374 29.6183 16.2919 30.7137C16.1893 32.0007 16.7164 33.6709 17.4077 34.3281C17.7157 34.6156 18.0786 34.6225 18.3114 34.6225C19.1192 34.6225 19.482 33.9516 19.8859 33.1576C20.3786 32.1854 20.8237 31.0559 20.8237 31.0559C20.8237 31.0559 20.2691 34.1091 21.7751 34.1091C22.3228 34.1091 22.8772 33.3972 23.1238 33.0344V33.0411C23.1238 33.0411 23.1375 33.0207 23.1649 32.9727C23.2196 32.8836 23.2537 32.8289 23.2537 32.8289V32.8152C23.4729 32.4319 23.9657 31.5625 24.6982 30.118C25.6429 28.2561 26.5534 25.9287 26.5534 25.9287C26.5534 25.9287 26.6355 26.4968 26.9162 27.4414C27.0804 27.9961 27.4228 28.6053 27.6966 29.194C27.4776 29.5021 27.3407 29.6731 27.3407 29.6731L27.3474 29.68C27.1695 29.9127 26.9779 30.166 26.7656 30.4124C26.0194 31.3024 25.1295 32.3224 25.0063 32.6168C24.8625 32.966 24.8968 33.2191 25.1706 33.4246C25.3691 33.5751 25.725 33.5956 26.0878 33.5751C26.7587 33.5271 27.2312 33.3629 27.4639 33.2601C27.8267 33.1302 28.2512 32.9316 28.6481 32.6373C29.3807 32.0965 29.8256 31.3229 29.7846 30.3029C29.7639 29.7415 29.5791 29.1803 29.3533 28.6531C29.4217 28.5573 29.4832 28.4614 29.5517 28.3656C30.7087 26.6748 31.6054 24.8196 31.6054 24.8196C31.6054 24.8196 31.6875 25.3878 31.9682 26.3326C32.1051 26.8116 32.3857 27.332 32.6323 27.8386C31.5439 28.7217 30.873 29.7484 30.6334 30.4193C30.2021 31.6653 30.5376 32.2264 31.1741 32.3566C31.4617 32.4183 31.8724 32.2814 32.1737 32.1513C32.5569 32.0281 33.0088 31.8158 33.4401 31.5008C34.1724 30.9601 34.8776 30.2071 34.8366 29.1871C34.8159 28.7217 34.6927 28.2629 34.5216 27.818C35.4457 27.4347 36.6369 27.2225 38.1566 27.4004C41.4152 27.7838 42.0587 29.8169 41.9353 30.6726C41.8121 31.5282 41.1276 31.9938 40.9016 32.1376C40.6759 32.2814 40.6005 32.3292 40.6211 32.4319C40.6485 32.5825 40.758 32.5756 40.9496 32.5482C41.2166 32.5004 42.6609 31.8569 42.7226 30.2824C42.8254 28.2698 40.9086 26.0723 37.5201 26.0929ZM12.3831 34.5678C11.3016 35.7451 9.79555 36.1902 9.14511 35.8137C8.44686 35.4096 8.72062 33.6709 10.0489 32.425C10.8564 31.6653 11.8971 30.9601 12.5884 30.5288C12.7459 30.433 12.9786 30.2961 13.2592 30.125C13.3072 30.0976 13.3346 30.0839 13.3346 30.0839L13.4989 29.9811C13.9849 31.7611 13.5193 33.3288 12.3831 34.5678ZM20.2556 29.2145C19.8791 30.1319 19.092 32.4798 18.6127 32.3498C18.2021 32.2401 17.9488 30.4604 18.5306 28.7011C18.825 27.8179 19.4479 26.7638 19.8107 26.353C20.3994 25.6958 21.0497 25.4768 21.2072 25.7438C21.4057 26.0929 20.4885 28.6394 20.2556 29.2145ZM26.7521 32.3224C26.5946 32.4046 26.4441 32.4593 26.3756 32.4183C26.3276 32.3909 26.4441 32.2814 26.4441 32.2814C26.4441 32.2814 27.2587 31.405 27.5805 31.0081C27.7652 30.7752 27.9844 30.5014 28.2171 30.1934V30.2824C28.2171 31.3298 27.204 32.0348 26.7521 32.3224ZM31.7631 31.1791C31.6466 31.0969 31.6672 30.8232 32.0574 29.9674C32.208 29.632 32.5641 29.0708 33.1732 28.5299C33.2417 28.7491 33.2897 28.9611 33.2827 29.1597C33.276 30.481 32.3312 30.9738 31.7631 31.1791Z" fill="white"/>
</g>
</g>
<defs>
<clipPath id="clip0_287_485">
<rect width="48" height="48" fill="white"/>
</clipPath>
</defs>
</svg>
